<?xml version="1.0" encoding="utf-8"?>
<!-- Generator: Adobe Illustrator 20.1.0, SVG Export Plug-In . SVG Version: 6.00 Build 0)  -->
<svg version="1.1" id="Layer_1" xmlns="http://www.w3.org/2000/svg" xmlns:xlink="http://www.w3.org/1999/xlink" x="0px" y="0px"
	 viewBox="0 0 104.4 36.8" style="enable-background:new 0 0 104.4 36.8;" xml:space="preserve">
<style type="text/css">
	.st0{fill:#383838;}
</style>
<g>
	<path class="st0" d="M15.2,0v4.7c2-1.6,4.1-2.7,6.2-3.5S25.7,0,27.9,0c1.4,0,2.7,0.2,4,0.6c1.3,0.4,2.3,0.9,3.2,1.6
		c0.9,0.7,1.6,1.5,2.3,2.7c2.3-1.7,4.4-3,6.5-3.7C46,0.4,48.1,0,50.3,0c1.9,0,3.6,0.3,5.1,1s2.8,1.6,3.7,2.8s1.6,2.4,1.8,3.8
		c0.2,0.8,0.3,2.1,0.3,3.7v14.6c0,1.2,0.1,2,0.3,2.3s0.5,0.6,0.9,0.8c0.3,0.1,1.2,0.2,2.6,0.2h1.5V36H46v-6.8c1.5,0,2.5-0.1,2.9-0.2
		s0.7-0.4,0.9-0.7c0.2-0.3,0.3-1.1,0.3-2.2V13.2c0-1.5-0.1-2.5-0.3-2.9c-0.2-0.5-0.6-0.9-1.2-1.2c-0.6-0.3-1.3-0.5-2.1-0.5
		c-0.9,0-1.9,0.2-3,0.6c-1.1,0.4-2.6,1.3-4.7,2.7v13.8c0,1.4,0.1,2.2,0.3,2.6s0.5,0.6,1,0.8c0.3,0.1,1.2,0.2,2.8,0.2v6.8H23.6v-6.8
		c1.6,0,2.6-0.1,2.9-0.2s0.6-0.4,0.8-0.8c0.2-0.4,0.3-1.2,0.3-2.6v-12c0-1.8-0.2-3.1-0.5-3.7c-0.5-0.9-1.4-1.4-2.8-1.4
		c-0.7,0-1.4,0.1-2.1,0.2S20.8,9.2,20,9.6c-0.4,0.2-1.3,0.8-2.9,1.8l-0.8,0.5v13.7c0,1.3,0.1,2.1,0.2,2.5c0.1,0.3,0.4,0.6,0.8,0.8
		c0.4,0.2,1.1,0.3,2.1,0.3h0.9V36H0v-6.8h1.4c1.5,0,2.4-0.1,2.7-0.2c0.4-0.2,0.6-0.4,0.8-0.8c0.2-0.4,0.3-1.2,0.3-2.5V9.8H0V3
		c4.3-0.4,8.3-1.4,11.9-3H15.2z"/>
	<path class="st0" d="M95.1,0.8h4.6l2.8,9.8l-6.6,2.7c-1.3-2-2.9-3.6-4.8-4.8s-3.8-1.7-5.7-1.7c-1.2,0-2.2,0.2-2.8,0.6
		c-0.6,0.4-0.9,0.9-0.9,1.5c0,0.5,0.2,0.9,0.7,1.4c0.4,0.4,1.3,0.9,2.7,1.3l9.7,3.4c1.7,0.6,3.4,1.4,4.9,2.3c1.6,0.9,2.7,2,3.5,3.4
		c0.8,1.3,1.2,2.9,1.2,4.7c0,3.2-1.2,5.8-3.7,7.8c-2.9,2.4-6.4,3.6-10.7,3.6c-3.7,0-6.8-0.9-9.6-2.8l-1,1.9h-4.7l-4.3-11.5l6.6-2.8
		c1.7,2.6,3.7,4.6,6.2,6.1C85.7,29.2,88,30,90,30c1.3,0,2.3-0.3,3.2-0.9c0.7-0.5,1-1,1-1.7c0-0.5-0.3-1.1-0.8-1.5
		c-0.5-0.5-1.7-1-3.4-1.7l-7.6-2.6c-4.2-1.5-7-3.1-8.6-4.7c-1.5-1.7-2.3-3.7-2.3-6c0-3,1.2-5.4,3.6-7.5c2.7-2.3,6-3.4,10-3.4
		c3.5,0,6.5,0.8,9,2.4L95.1,0.8z"/>
</g>
</svg>
